<svg width="360" height="268" viewBox="0 0 360 268" fill="none" xmlns="http://www.w3.org/2000/svg">
<g filter="url(#filter0_dd_53_919)">
<path d="M18 16C18 11.5817 21.5817 8 26 8H334.945C339.363 8 342.945 11.5817 342.945 16V204C342.945 208.418 339.363 212 334.945 212H26C21.5817 212 18 208.418 18 204V16Z" fill="#151522"/>
<mask id="mask0_53_919" style="mask-type:alpha" maskUnits="userSpaceOnUse" x="18" y="8" width="325" height="204">
<path d="M18 16C18 11.5817 21.5817 8 26 8H334.945C339.363 8 342.945 11.5817 342.945 16V204C342.945 208.418 339.363 212 334.945 212H26C21.5817 212 18 208.418 18 204V16Z" fill="#151522"/>
</mask>
<g mask="url(#mask0_53_919)">
<path opacity="0.1" d="M1045.9 184.92C1045.9 181.421 1044.08 178.179 1041.08 176.374C962.8 129.255 871.178 80.3969 766.786 92.3694C691.572 100.992 642.082 148.538 575.916 171.695C489.966 201.75 422.585 163.368 345.683 137.55C241.909 102.765 113.695 112.225 21.1288 161.496C3.35158 170.981 -13.957 181.986 -31.3467 192.882C-40.0271 198.322 -36.1435 212.343 -25.8996 212.343H1035.9C1041.42 212.343 1045.9 207.866 1045.9 202.343V184.92Z" fill="white"/>
<path opacity="0.1" d="M695.518 212.312C695.518 212.326 695.504 212.335 695.491 212.329C689.761 209.476 684.031 206.672 678.369 203.868C542.592 137.846 379.201 103.8 217.161 107.643C79.055 110.965 -54.4112 142.488 -172.589 194.153C-182.3 198.399 -179.186 212.293 -168.587 212.293H695.499C695.51 212.293 695.518 212.301 695.518 212.312Z" fill="white"/>
</g>
<path d="M309.697 40.5006L312.41 38.0253C313.556 39.2002 314.721 40.4115 315.899 41.5997C317.949 43.6658 320.039 45.6923 322.066 47.7815C323.67 49.4317 323.663 51.3757 322.066 53.0226C320.112 55.026 318.105 56.9832 316.124 58.9635C313.949 61.0989 311.965 60.9471 309.951 58.4156L312.225 56.3759C313.008 57.1119 313.638 56.7588 314.384 55.9766C316.16 54.125 318.052 52.3724 319.854 50.6133L309.697 40.5006Z" fill="white"/>
<path d="M308.168 33.9657L305.999 36.276L304.923 35.6159L298.443 42.0914C301.698 45.3391 304.973 48.6198 308.221 51.8674L305.798 54.2372C302.497 50.9895 299.024 47.6626 295.661 44.2235C294.538 43.075 294.631 41.0518 295.773 39.8438C297.998 37.4939 300.279 35.1802 302.642 32.9689C304.339 31.3979 306.234 31.7807 308.168 33.9657Z" fill="white"/>
<path d="M296.829 47.3425L299.005 49.3624L298.123 50.435L304.758 57.0954L314.724 46.9398L317.213 49.5571C315.083 51.6496 312.947 53.7498 310.806 55.8577C309.71 56.937 308.64 58.0426 307.538 59.112C305.643 60.9471 303.811 60.9471 301.956 59.112C300.101 57.2769 298.298 55.4716 296.473 53.6431C294.106 51.2667 294.188 49.5835 296.829 47.3425Z" fill="white"/>
<path d="M321.326 45.1642C320.805 44.174 319.015 44.0552 319.596 42.3225C319.649 42.1673 319.345 41.8604 319.161 41.6624C317.18 39.6194 315.17 37.5863 313.047 35.4278L303.203 45.3292L301.087 42.7779C302.038 41.8769 303.151 40.8571 304.227 39.8075C306.336 37.7249 308.416 35.606 310.525 33.5366C312.083 31.9821 313.912 31.9458 315.463 33.4673C317.626 35.5763 319.755 37.7051 321.871 39.8768C323.531 41.5832 323.333 43.4644 321.326 45.1642Z" fill="white"/>
<mask id="mask1_53_919" style="mask-type:alpha" maskUnits="userSpaceOnUse" x="40" y="34" width="31" height="24">
<rect x="40.6704" y="34.9167" width="30.2274" height="22.6667" rx="8" fill="#FFBA49"/>
</mask>
<g mask="url(#mask1_53_919)">
<rect x="40.6704" y="34.9167" width="30.2274" height="22.6667" rx="8" fill="#FFDF92"/>
<rect x="35.0029" y="36.8056" width="18.8921" height="6.61111" rx="2.5" fill="#FFCF5C" stroke="white" stroke-opacity="0.3" stroke-width="0.3"/>
<rect x="35.0029" y="43.4167" width="18.8921" height="6.61111" rx="2.5" fill="#FFCF5C" stroke="white" stroke-opacity="0.3" stroke-width="0.3"/>
<rect x="35.0029" y="50.0278" width="18.8921" height="6.61111" rx="2.5" fill="#FFCF5C" stroke="white" stroke-opacity="0.3" stroke-width="0.3"/>
<rect x="58.6182" y="36.8056" width="18.8921" height="6.61111" rx="2.5" fill="#FFCF5C" stroke="white" stroke-opacity="0.3" stroke-width="0.3"/>
<rect x="58.6182" y="43.4167" width="18.8921" height="6.61111" rx="2.5" fill="#FFCF5C" stroke="white" stroke-opacity="0.3" stroke-width="0.3"/>
<rect x="58.6182" y="50.0278" width="18.8921" height="6.61111" rx="2.5" fill="#FFCF5C" stroke="white" stroke-opacity="0.3" stroke-width="0.3"/>
</g>
<path fill-rule="evenodd" clip-rule="evenodd" d="M279.062 154.909C279.062 152.7 280.853 150.909 283.062 150.909H320.403C322.612 150.909 324.403 152.7 324.403 154.909V192.243C324.403 194.452 322.612 196.243 320.403 196.243H283.062C280.853 196.243 279.062 194.452 279.062 192.243V154.909Z" fill="white"/>
<path d="M279.562 154.909C279.562 152.976 281.129 151.409 283.062 151.409H320.403C322.336 151.409 323.903 152.976 323.903 154.909V192.243C323.903 194.176 322.336 195.743 320.403 195.743H283.062C281.129 195.743 279.562 194.176 279.562 192.243V154.909Z" stroke="#E4E4E4" stroke-opacity="0.6"/>
<ellipse cx="308.571" cy="173.576" rx="10.5112" ry="10.5094" fill="#F79E1B"/>
<ellipse cx="294.894" cy="173.576" rx="10.5112" ry="10.5094" fill="#EB001B"/>
<path d="M35.3185 97.5927L35.1205 94.8867H36.8805L36.6825 97.5487L39.1905 96.5807L39.6965 98.2307L37.1445 98.8687L38.8385 100.937L37.4305 101.949L36.0225 99.6827L34.5705 101.971L33.1845 100.937L34.8565 98.9127L32.2825 98.2527L32.8105 96.5807L35.3185 97.5927ZM51.8185 97.5927L51.6205 94.8867H53.3805L53.1825 97.5487L55.6905 96.5807L56.1965 98.2307L53.6445 98.8687L55.3385 100.937L53.9305 101.949L52.5225 99.6827L51.0705 101.971L49.6845 100.937L51.3565 98.9127L48.7825 98.2527L49.3105 96.5807L51.8185 97.5927ZM68.3185 97.5927L68.1205 94.8867H69.8805L69.6825 97.5487L72.1905 96.5807L72.6965 98.2307L70.1445 98.8687L71.8385 100.937L70.4305 101.949L69.0225 99.6827L67.5705 101.971L66.1845 100.937L67.8565 98.9127L65.2825 98.2527L65.8105 96.5807L68.3185 97.5927ZM84.8185 97.5927L84.6205 94.8867H86.3805L86.1825 97.5487L88.6905 96.5807L89.1965 98.2307L86.6445 98.8687L88.3385 100.937L86.9305 101.949L85.5225 99.6827L84.0705 101.971L82.6845 100.937L84.3565 98.9127L81.7825 98.2527L82.3105 96.5807L84.8185 97.5927ZM107.914 97.5927L107.716 94.8867H109.476L109.278 97.5487L111.786 96.5807L112.292 98.2307L109.74 98.8687L111.434 100.937L110.026 101.949L108.618 99.6827L107.166 101.971L105.78 100.937L107.452 98.9127L104.878 98.2527L105.406 96.5807L107.914 97.5927ZM124.414 97.5927L124.216 94.8867H125.976L125.778 97.5487L128.286 96.5807L128.792 98.2307L126.24 98.8687L127.934 100.937L126.526 101.949L125.118 99.6827L123.666 101.971L122.28 100.937L123.952 98.9127L121.378 98.2527L121.906 96.5807L124.414 97.5927ZM140.914 97.5927L140.716 94.8867H142.476L142.278 97.5487L144.786 96.5807L145.292 98.2307L142.74 98.8687L144.434 100.937L143.026 101.949L141.618 99.6827L140.166 101.971L138.78 100.937L140.452 98.9127L137.878 98.2527L138.406 96.5807L140.914 97.5927ZM157.414 97.5927L157.216 94.8867H158.976L158.778 97.5487L161.286 96.5807L161.792 98.2307L159.24 98.8687L160.934 100.937L159.526 101.949L158.118 99.6827L156.666 101.971L155.28 100.937L156.952 98.9127L154.378 98.2527L154.906 96.5807L157.414 97.5927ZM180.51 97.5927L180.312 94.8867H182.072L181.874 97.5487L184.382 96.5807L184.888 98.2307L182.336 98.8687L184.03 100.937L182.622 101.949L181.214 99.6827L179.762 101.971L178.376 100.937L180.048 98.9127L177.474 98.2527L178.002 96.5807L180.51 97.5927ZM197.01 97.5927L196.812 94.8867H198.572L198.374 97.5487L200.882 96.5807L201.388 98.2307L198.836 98.8687L200.53 100.937L199.122 101.949L197.714 99.6827L196.262 101.971L194.876 100.937L196.548 98.9127L193.974 98.2527L194.502 96.5807L197.01 97.5927ZM213.51 97.5927L213.312 94.8867H215.072L214.874 97.5487L217.382 96.5807L217.888 98.2307L215.336 98.8687L217.03 100.937L215.622 101.949L214.214 99.6827L212.762 101.971L211.376 100.937L213.048 98.9127L210.474 98.2527L211.002 96.5807L213.51 97.5927ZM230.01 97.5927L229.812 94.8867H231.572L231.374 97.5487L233.882 96.5807L234.388 98.2307L231.836 98.8687L233.53 100.937L232.122 101.949L230.714 99.6827L229.262 101.971L227.876 100.937L229.548 98.9127L226.974 98.2527L227.502 96.5807L230.01 97.5927ZM251.39 103.951L251.654 102.345H252.358C253.795 102.345 254.946 102.088 255.812 101.575C256.677 101.047 257.11 100.335 257.11 99.4407C257.11 98.766 256.875 98.2307 256.406 97.8347C255.951 97.424 255.364 97.2187 254.646 97.2187C253.971 97.2187 253.392 97.3287 252.908 97.5487C252.424 97.754 251.991 97.996 251.61 98.2747L250.84 96.7787C251.353 96.412 251.94 96.1114 252.6 95.8767C253.274 95.6274 254.037 95.5027 254.888 95.5027C255.782 95.5027 256.545 95.6714 257.176 96.0087C257.821 96.346 258.312 96.7934 258.65 97.3507C258.987 97.8934 259.156 98.48 259.156 99.1107C259.156 100.137 258.855 100.973 258.254 101.619C257.652 102.249 256.772 102.741 255.614 103.093C256.538 103.415 257.249 103.892 257.748 104.523C258.246 105.153 258.496 105.901 258.496 106.767C258.496 107.705 258.254 108.527 257.77 109.231C257.286 109.935 256.618 110.477 255.768 110.859C254.932 111.24 253.971 111.431 252.886 111.431C252.05 111.431 251.258 111.321 250.51 111.101C249.776 110.866 249.153 110.551 248.64 110.155L249.806 108.593C250.172 108.901 250.612 109.157 251.126 109.363C251.639 109.568 252.226 109.671 252.886 109.671C253.883 109.671 254.712 109.429 255.372 108.945C256.032 108.461 256.362 107.764 256.362 106.855C256.362 106.048 256.046 105.366 255.416 104.809C254.785 104.237 253.817 103.951 252.512 103.951H251.39ZM266.451 109.627C267.346 109.627 268.189 109.165 268.981 108.241C269.773 107.302 270.33 105.821 270.653 103.797C269.626 104.75 268.504 105.227 267.287 105.227C266.524 105.227 265.82 105.058 265.175 104.721C264.53 104.369 264.009 103.87 263.613 103.225C263.232 102.579 263.041 101.809 263.041 100.915C263.041 99.9027 263.276 98.9934 263.745 98.1867C264.214 97.3654 264.86 96.7127 265.681 96.2287C266.502 95.7447 267.426 95.5027 268.453 95.5027C269.876 95.5027 270.998 95.95 271.819 96.8447C272.215 97.27 272.516 97.7687 272.721 98.3407C272.926 98.9127 273.029 99.5947 273.029 100.387C273.029 101.765 272.897 103.115 272.633 104.435C272.384 105.74 271.988 106.921 271.445 107.977C270.917 109.033 270.22 109.876 269.355 110.507C268.504 111.123 267.485 111.431 266.297 111.431C265.446 111.431 264.676 111.269 263.987 110.947C263.312 110.624 262.74 110.213 262.271 109.715L263.789 108.307C264.156 108.717 264.552 109.04 264.977 109.275C265.417 109.509 265.908 109.627 266.451 109.627ZM270.983 100.651C270.983 99.5507 270.734 98.7147 270.235 98.1427C269.751 97.556 269.098 97.2627 268.277 97.2627C267.69 97.2627 267.155 97.4167 266.671 97.7247C266.187 98.0327 265.798 98.4507 265.505 98.9787C265.226 99.5067 265.087 100.108 265.087 100.783C265.087 101.633 265.322 102.315 265.791 102.829C266.275 103.342 266.913 103.599 267.705 103.599C268.262 103.599 268.82 103.467 269.377 103.203C269.949 102.924 270.462 102.535 270.917 102.037C270.946 101.773 270.961 101.538 270.961 101.333C270.976 101.127 270.983 100.9 270.983 100.651ZM283.756 107.845L283.184 111.167H281.248L281.82 107.845H275.264L275.528 106.305L281.974 95.6127L283.668 96.3387L277.838 106.085H282.128L282.92 101.707H284.856L284.064 106.085H285.956L285.648 107.845H283.756ZM290.238 111.167C290.546 109.319 290.905 107.727 291.316 106.393C291.741 105.058 292.24 103.892 292.812 102.895C293.399 101.897 294.095 100.981 294.902 100.145C295.709 99.3087 296.647 98.4507 297.718 97.5707H290.392L290.7 95.7667H300.446L300.182 97.3507C299.199 98.172 298.341 98.964 297.608 99.7267C296.875 100.475 296.237 101.237 295.694 102.015C295.166 102.777 294.704 103.606 294.308 104.501C293.927 105.395 293.582 106.385 293.274 107.471C292.981 108.556 292.709 109.788 292.46 111.167H290.238Z" fill="white"/>
<path d="M49.3426 161.688C48.6752 161.688 48.0849 161.53 47.5716 161.215C47.0582 160.892 46.6586 160.437 46.3726 159.851C46.0866 159.257 45.9436 158.553 45.9436 157.739C45.9436 156.954 46.0866 156.261 46.3726 155.66C46.6659 155.051 47.0766 154.578 47.6046 154.241C48.1399 153.896 48.7632 153.724 49.4746 153.724C49.8412 153.724 50.1749 153.76 50.4756 153.834C50.7762 153.9 51.0586 153.995 51.3226 154.12L51.0036 155C50.7762 154.89 50.5416 154.802 50.2996 154.736C50.0649 154.67 49.7862 154.637 49.4636 154.637C48.9942 154.637 48.5726 154.758 48.1986 155C47.8319 155.242 47.5422 155.59 47.3296 156.045C47.1169 156.499 47.0106 157.049 47.0106 157.695C47.0106 158.311 47.1132 158.85 47.3186 159.312C47.5312 159.774 47.8209 160.133 48.1876 160.39C48.5616 160.646 48.9869 160.775 49.4636 160.775C49.8229 160.775 50.1346 160.731 50.3986 160.643C50.6626 160.555 50.9192 160.441 51.1686 160.302L51.4876 161.171C51.2162 161.317 50.9046 161.442 50.5526 161.545C50.2079 161.64 49.8046 161.688 49.3426 161.688ZM54.6608 161.688C54.1841 161.688 53.7515 161.567 53.3628 161.325C52.9741 161.083 52.6625 160.742 52.4278 160.302C52.2005 159.854 52.0868 159.33 52.0868 158.729C52.0868 158.157 52.2005 157.643 52.4278 157.189C52.6625 156.734 52.9815 156.375 53.3848 156.111C53.7955 155.839 54.2648 155.704 54.7928 155.704C55.1228 155.704 55.4198 155.762 55.6838 155.88C55.9551 155.99 56.1898 156.129 56.3878 156.298V155.836H57.2898V160.17C57.2898 160.448 57.3558 160.632 57.4878 160.72C57.6271 160.8 57.7775 160.841 57.9388 160.841L57.7298 161.611C57.0258 161.611 56.6005 161.325 56.4538 160.753C56.2851 160.987 56.0541 161.204 55.7608 161.402C55.4748 161.592 55.1081 161.688 54.6608 161.688ZM54.8808 160.808C55.1595 160.808 55.4235 160.742 55.6728 160.61C55.9221 160.47 56.1311 160.298 56.2998 160.093V157.024C56.1018 156.884 55.8818 156.774 55.6398 156.694C55.4051 156.606 55.1558 156.562 54.8918 156.562C54.5398 156.562 54.2281 156.653 53.9568 156.837C53.6928 157.013 53.4838 157.262 53.3298 157.585C53.1758 157.9 53.0988 158.27 53.0988 158.696C53.0988 159.106 53.1758 159.473 53.3298 159.796C53.4838 160.111 53.6965 160.36 53.9678 160.544C54.2391 160.72 54.5435 160.808 54.8808 160.808ZM59.2609 161.556V155.836H60.2179V157.079C60.3132 156.837 60.4415 156.613 60.6029 156.408C60.7642 156.195 60.9659 156.026 61.2079 155.902C61.4499 155.77 61.7322 155.704 62.0549 155.704C62.1649 155.704 62.2749 155.711 62.3849 155.726C62.4949 155.733 62.5865 155.748 62.6599 155.77L62.3629 156.793C62.2235 156.734 62.0585 156.705 61.8679 156.705C61.5965 156.705 61.3362 156.782 61.0869 156.936C60.8449 157.09 60.6432 157.328 60.4819 157.651C60.3279 157.973 60.2509 158.384 60.2509 158.883V161.556H59.2609ZM65.4884 161.688C65.0191 161.688 64.5901 161.567 64.2014 161.325C63.8127 161.083 63.5047 160.742 63.2774 160.302C63.0501 159.854 62.9364 159.33 62.9364 158.729C62.9364 158.149 63.0501 157.632 63.2774 157.178C63.5121 156.723 63.8201 156.364 64.2014 156.1C64.5901 155.836 65.0154 155.704 65.4774 155.704C65.8587 155.704 66.1851 155.781 66.4564 155.935C66.7351 156.089 66.9514 156.246 67.1054 156.408V153.416H68.0954V160.17C68.0954 160.448 68.1614 160.632 68.2934 160.72C68.4327 160.8 68.5831 160.841 68.7444 160.841L68.5354 161.611C67.8387 161.611 67.4134 161.332 67.2594 160.775C67.0981 161.002 66.8707 161.211 66.5774 161.402C66.2914 161.592 65.9284 161.688 65.4884 161.688ZM65.7084 160.808C65.9797 160.808 66.2364 160.745 66.4784 160.621C66.7277 160.489 66.9367 160.32 67.1054 160.115V157.277C66.9661 157.101 66.7717 156.939 66.5224 156.793C66.2731 156.639 65.9981 156.562 65.6974 156.562C65.3454 156.562 65.0374 156.657 64.7734 156.848C64.5094 157.038 64.3041 157.295 64.1574 157.618C64.0181 157.933 63.9484 158.292 63.9484 158.696C63.9484 159.099 64.0254 159.462 64.1794 159.785C64.3334 160.1 64.5424 160.349 64.8064 160.533C65.0777 160.716 65.3784 160.808 65.7084 160.808ZM73.4754 161.556V153.856H74.5204V157.145H78.3154V153.856H79.3604V161.556H78.3154V158.047H74.5204V161.556H73.4754ZM83.6376 161.688C83.095 161.688 82.6073 161.563 82.1746 161.314C81.742 161.057 81.401 160.705 81.1516 160.258C80.9096 159.803 80.7886 159.282 80.7886 158.696C80.7886 158.08 80.9133 157.548 81.1626 157.101C81.412 156.653 81.753 156.309 82.1856 156.067C82.6183 155.825 83.1023 155.704 83.6376 155.704C84.173 155.704 84.6533 155.825 85.0786 156.067C85.5113 156.309 85.8523 156.653 86.1016 157.101C86.3583 157.541 86.4866 158.065 86.4866 158.674C86.4866 159.282 86.362 159.814 86.1126 160.269C85.8633 160.716 85.5223 161.064 85.0896 161.314C84.6643 161.563 84.1803 161.688 83.6376 161.688ZM83.6376 160.808C84.217 160.808 84.668 160.613 84.9906 160.225C85.3133 159.829 85.4746 159.319 85.4746 158.696C85.4746 158.314 85.394 157.966 85.2326 157.651C85.0713 157.328 84.8513 157.071 84.5726 156.881C84.3013 156.683 83.9896 156.584 83.6376 156.584C83.0583 156.584 82.6073 156.774 82.2846 157.156C81.962 157.537 81.8006 158.043 81.8006 158.674C81.8006 159.055 81.8813 159.411 82.0426 159.741C82.204 160.063 82.4203 160.324 82.6916 160.522C82.9703 160.712 83.2856 160.808 83.6376 160.808ZM89.5409 161.688C89.2035 161.688 88.8992 161.625 88.6279 161.501C88.3565 161.369 88.1402 161.16 87.9789 160.874C87.8249 160.588 87.7479 160.217 87.7479 159.763V153.416H88.7379V159.664C88.7379 160.06 88.8185 160.353 88.9799 160.544C89.1485 160.734 89.3795 160.83 89.6729 160.83C89.8122 160.83 89.9479 160.815 90.0799 160.786C90.2192 160.749 90.3365 160.709 90.4319 160.665L90.6739 161.468C90.5419 161.526 90.3769 161.578 90.1789 161.622C89.9882 161.666 89.7755 161.688 89.5409 161.688ZM93.6115 161.688C93.1421 161.688 92.7131 161.567 92.3245 161.325C91.9358 161.083 91.6278 160.742 91.4005 160.302C91.1731 159.854 91.0595 159.33 91.0595 158.729C91.0595 158.149 91.1731 157.632 91.4005 157.178C91.6351 156.723 91.9431 156.364 92.3245 156.1C92.7131 155.836 93.1385 155.704 93.6005 155.704C93.9818 155.704 94.3081 155.781 94.5795 155.935C94.8581 156.089 95.0745 156.246 95.2285 156.408V153.416H96.2185V160.17C96.2185 160.448 96.2845 160.632 96.4165 160.72C96.5558 160.8 96.7061 160.841 96.8675 160.841L96.6585 161.611C95.9618 161.611 95.5365 161.332 95.3825 160.775C95.2211 161.002 94.9938 161.211 94.7005 161.402C94.4145 161.592 94.0515 161.688 93.6115 161.688ZM93.8315 160.808C94.1028 160.808 94.3595 160.745 94.6015 160.621C94.8508 160.489 95.0598 160.32 95.2285 160.115V157.277C95.0891 157.101 94.8948 156.939 94.6455 156.793C94.3961 156.639 94.1211 156.562 93.8205 156.562C93.4685 156.562 93.1605 156.657 92.8965 156.848C92.6325 157.038 92.4271 157.295 92.2805 157.618C92.1411 157.933 92.0715 158.292 92.0715 158.696C92.0715 159.099 92.1485 159.462 92.3025 159.785C92.4565 160.1 92.6655 160.349 92.9295 160.533C93.2008 160.716 93.5015 160.808 93.8315 160.808ZM100.371 161.688C99.5498 161.688 98.8971 161.427 98.4131 160.907C97.9365 160.379 97.6981 159.642 97.6981 158.696C97.6981 158.124 97.8045 157.614 98.0171 157.167C98.2371 156.712 98.5415 156.356 98.9301 156.1C99.3188 155.836 99.7698 155.704 100.283 155.704C100.833 155.704 101.288 155.825 101.647 156.067C102.014 156.301 102.289 156.62 102.472 157.024C102.655 157.427 102.747 157.871 102.747 158.355C102.747 158.611 102.736 158.861 102.714 159.103H98.7101C98.7761 159.638 98.9631 160.056 99.2711 160.357C99.5791 160.657 99.9861 160.808 100.492 160.808C100.822 160.808 101.119 160.775 101.383 160.709C101.647 160.635 101.9 160.544 102.142 160.434L102.373 161.281C102.109 161.398 101.812 161.493 101.482 161.567C101.152 161.647 100.782 161.688 100.371 161.688ZM98.6991 158.3H101.834C101.834 157.742 101.695 157.313 101.416 157.013C101.137 156.712 100.752 156.562 100.261 156.562C99.8358 156.562 99.4838 156.712 99.2051 157.013C98.9265 157.306 98.7578 157.735 98.6991 158.3ZM104.067 161.556V155.836H105.024V157.079C105.119 156.837 105.247 156.613 105.409 156.408C105.57 156.195 105.772 156.026 106.014 155.902C106.256 155.77 106.538 155.704 106.861 155.704C106.971 155.704 107.081 155.711 107.191 155.726C107.301 155.733 107.392 155.748 107.466 155.77L107.169 156.793C107.029 156.734 106.864 156.705 106.674 156.705C106.402 156.705 106.142 156.782 105.893 156.936C105.651 157.09 105.449 157.328 105.288 157.651C105.134 157.973 105.057 158.384 105.057 158.883V161.556H104.067ZM111.868 161.556V153.856H113.254L116.653 160.258V153.856H117.643V161.556H116.279L112.858 155.198V161.556H111.868ZM121.703 161.688C121.226 161.688 120.793 161.567 120.405 161.325C120.016 161.083 119.704 160.742 119.47 160.302C119.242 159.854 119.129 159.33 119.129 158.729C119.129 158.157 119.242 157.643 119.47 157.189C119.704 156.734 120.023 156.375 120.427 156.111C120.837 155.839 121.307 155.704 121.835 155.704C122.165 155.704 122.462 155.762 122.726 155.88C122.997 155.99 123.232 156.129 123.43 156.298V155.836H124.332V160.17C124.332 160.448 124.398 160.632 124.53 160.72C124.669 160.8 124.819 160.841 124.981 160.841L124.772 161.611C124.068 161.611 123.642 161.325 123.496 160.753C123.327 160.987 123.096 161.204 122.803 161.402C122.517 161.592 122.15 161.688 121.703 161.688ZM121.923 160.808C122.201 160.808 122.465 160.742 122.715 160.61C122.964 160.47 123.173 160.298 123.342 160.093V157.024C123.144 156.884 122.924 156.774 122.682 156.694C122.447 156.606 122.198 156.562 121.934 156.562C121.582 156.562 121.27 156.653 120.999 156.837C120.735 157.013 120.526 157.262 120.372 157.585C120.218 157.9 120.141 158.27 120.141 158.696C120.141 159.106 120.218 159.473 120.372 159.796C120.526 160.111 120.738 160.36 121.01 160.544C121.281 160.72 121.585 160.808 121.923 160.808ZM126.303 161.556V155.836H127.26V156.793C127.465 156.485 127.726 156.228 128.041 156.023C128.356 155.81 128.716 155.704 129.119 155.704C129.574 155.704 129.944 155.814 130.23 156.034C130.523 156.254 130.729 156.547 130.846 156.914C131.073 156.576 131.341 156.29 131.649 156.056C131.964 155.821 132.353 155.704 132.815 155.704C133.438 155.704 133.9 155.902 134.201 156.298C134.509 156.686 134.663 157.196 134.663 157.827V161.556H133.673V157.904C133.673 157.508 133.581 157.189 133.398 156.947C133.215 156.697 132.962 156.573 132.639 156.573C132.309 156.573 132.001 156.697 131.715 156.947C131.436 157.189 131.191 157.475 130.978 157.805V161.556H129.988V157.904C129.988 157.508 129.896 157.189 129.713 156.947C129.53 156.697 129.277 156.573 128.954 156.573C128.631 156.573 128.327 156.694 128.041 156.936C127.755 157.17 127.506 157.449 127.293 157.772V161.556H126.303ZM138.656 161.688C137.835 161.688 137.182 161.427 136.698 160.907C136.222 160.379 135.983 159.642 135.983 158.696C135.983 158.124 136.09 157.614 136.302 157.167C136.522 156.712 136.827 156.356 137.215 156.1C137.604 155.836 138.055 155.704 138.568 155.704C139.118 155.704 139.573 155.825 139.932 156.067C140.299 156.301 140.574 156.62 140.757 157.024C140.941 157.427 141.032 157.871 141.032 158.355C141.032 158.611 141.021 158.861 140.999 159.103H136.995C137.061 159.638 137.248 160.056 137.556 160.357C137.864 160.657 138.271 160.808 138.777 160.808C139.107 160.808 139.404 160.775 139.668 160.709C139.932 160.635 140.185 160.544 140.427 160.434L140.658 161.281C140.394 161.398 140.097 161.493 139.767 161.567C139.437 161.647 139.067 161.688 138.656 161.688ZM136.984 158.3H140.119C140.119 157.742 139.98 157.313 139.701 157.013C139.423 156.712 139.038 156.562 138.546 156.562C138.121 156.562 137.769 156.712 137.49 157.013C137.212 157.306 137.043 157.735 136.984 158.3Z" fill="#999999"/>
<path d="M166.348 161.556V153.856H170.968V154.758H167.393V157.101H170.473V157.981H167.393V160.654H170.968V161.556H166.348ZM176.102 161.655L174.177 159.268L172.274 161.633L171.57 161.017L173.605 158.652L171.647 156.386L172.417 155.715L174.188 158.003L175.926 155.759L176.663 156.386L174.76 158.608L176.85 161.017L176.102 161.655ZM178.049 163.976V157.299C178.049 157.049 177.987 156.873 177.862 156.771C177.745 156.661 177.591 156.606 177.4 156.606L177.609 155.836C178.284 155.836 178.705 156.103 178.874 156.639C178.947 156.529 179.065 156.4 179.226 156.254C179.395 156.107 179.6 155.979 179.842 155.869C180.091 155.759 180.374 155.704 180.689 155.704C181.129 155.704 181.54 155.821 181.921 156.056C182.31 156.283 182.621 156.617 182.856 157.057C183.091 157.489 183.208 158.017 183.208 158.641C183.208 159.249 183.091 159.785 182.856 160.247C182.621 160.701 182.313 161.057 181.932 161.314C181.558 161.563 181.151 161.688 180.711 161.688C180.374 161.688 180.058 161.622 179.765 161.49C179.472 161.35 179.23 161.193 179.039 161.017V163.976H178.049ZM180.513 160.808C181.012 160.808 181.415 160.613 181.723 160.225C182.038 159.829 182.196 159.312 182.196 158.674C182.196 158.234 182.115 157.856 181.954 157.541C181.8 157.225 181.591 156.983 181.327 156.815C181.07 156.646 180.784 156.562 180.469 156.562C180.154 156.562 179.868 156.642 179.611 156.804C179.362 156.958 179.171 157.126 179.039 157.31V160.126C179.23 160.324 179.45 160.489 179.699 160.621C179.948 160.745 180.22 160.808 180.513 160.808ZM184.586 161.556V155.836H185.576V161.556H184.586ZM185.081 154.857C184.89 154.857 184.725 154.787 184.586 154.648C184.454 154.508 184.388 154.347 184.388 154.164C184.388 153.951 184.45 153.782 184.575 153.658C184.7 153.533 184.868 153.471 185.081 153.471C185.272 153.471 185.433 153.54 185.565 153.68C185.704 153.812 185.774 153.973 185.774 154.164C185.774 154.369 185.712 154.538 185.587 154.67C185.462 154.794 185.294 154.857 185.081 154.857ZM187.336 161.556V155.836H188.293V157.079C188.388 156.837 188.517 156.613 188.678 156.408C188.839 156.195 189.041 156.026 189.283 155.902C189.525 155.77 189.807 155.704 190.13 155.704C190.24 155.704 190.35 155.711 190.46 155.726C190.57 155.733 190.662 155.748 190.735 155.77L190.438 156.793C190.299 156.734 190.134 156.705 189.943 156.705C189.672 156.705 189.411 156.782 189.162 156.936C188.92 157.09 188.718 157.328 188.557 157.651C188.403 157.973 188.326 158.384 188.326 158.883V161.556H187.336ZM191.873 164.108C191.653 164.108 191.458 164.086 191.29 164.042C191.128 163.998 191 163.946 190.905 163.888L191.125 163.063C191.213 163.114 191.323 163.158 191.455 163.195C191.587 163.231 191.733 163.25 191.895 163.25C192.203 163.25 192.478 163.151 192.72 162.953C192.962 162.755 193.193 162.366 193.413 161.787L193.666 161.127H193.138L190.905 156.1L191.785 155.704L193.919 160.467L195.58 155.748L196.493 156.1L194.392 161.842C194.179 162.428 193.948 162.887 193.699 163.217C193.449 163.547 193.174 163.778 192.874 163.91C192.573 164.042 192.239 164.108 191.873 164.108ZM202.919 161.644C202.501 161.644 202.135 161.633 201.819 161.611C201.511 161.589 201.203 161.563 200.895 161.534V153.878C201.24 153.841 201.577 153.815 201.907 153.801C202.237 153.779 202.615 153.768 203.04 153.768C203.7 153.768 204.269 153.87 204.745 154.076C205.229 154.281 205.625 154.563 205.933 154.923C206.249 155.282 206.48 155.7 206.626 156.177C206.78 156.646 206.857 157.152 206.857 157.695C206.857 158.23 206.78 158.736 206.626 159.213C206.472 159.689 206.234 160.111 205.911 160.478C205.596 160.837 205.189 161.123 204.69 161.336C204.199 161.541 203.609 161.644 202.919 161.644ZM202.952 160.731C203.612 160.731 204.151 160.602 204.569 160.346C204.987 160.089 205.295 159.733 205.493 159.279C205.691 158.817 205.79 158.289 205.79 157.695C205.79 157.167 205.691 156.672 205.493 156.21C205.295 155.748 204.991 155.377 204.58 155.099C204.17 154.813 203.645 154.67 203.007 154.67C202.795 154.67 202.6 154.677 202.424 154.692C202.248 154.699 202.087 154.71 201.94 154.725V160.676C202.094 160.698 202.256 160.712 202.424 160.72C202.593 160.727 202.769 160.731 202.952 160.731ZM210.472 161.688C209.996 161.688 209.563 161.567 209.174 161.325C208.786 161.083 208.474 160.742 208.239 160.302C208.012 159.854 207.898 159.33 207.898 158.729C207.898 158.157 208.012 157.643 208.239 157.189C208.474 156.734 208.793 156.375 209.196 156.111C209.607 155.839 210.076 155.704 210.604 155.704C210.934 155.704 211.231 155.762 211.495 155.88C211.767 155.99 212.001 156.129 212.199 156.298V155.836H213.101V160.17C213.101 160.448 213.167 160.632 213.299 160.72C213.439 160.8 213.589 160.841 213.75 160.841L213.541 161.611C212.837 161.611 212.412 161.325 212.265 160.753C212.097 160.987 211.866 161.204 211.572 161.402C211.286 161.592 210.92 161.688 210.472 161.688ZM210.692 160.808C210.971 160.808 211.235 160.742 211.484 160.61C211.734 160.47 211.943 160.298 212.111 160.093V157.024C211.913 156.884 211.693 156.774 211.451 156.694C211.217 156.606 210.967 156.562 210.703 156.562C210.351 156.562 210.04 156.653 209.768 156.837C209.504 157.013 209.295 157.262 209.141 157.585C208.987 157.9 208.91 158.27 208.91 158.696C208.91 159.106 208.987 159.473 209.141 159.796C209.295 160.111 209.508 160.36 209.779 160.544C210.051 160.72 210.355 160.808 210.692 160.808ZM217.074 161.688C216.524 161.688 216.088 161.508 215.765 161.149C215.45 160.782 215.292 160.261 215.292 159.587V156.903H214.302V156.045H215.314L215.523 154.241H216.282V156.045H217.866V156.903H216.282V159.664C216.282 160.089 216.37 160.386 216.546 160.555C216.73 160.723 216.946 160.808 217.195 160.808C217.379 160.808 217.551 160.778 217.712 160.72C217.881 160.661 218.035 160.591 218.174 160.511L218.449 161.303C218.303 161.391 218.105 161.475 217.855 161.556C217.606 161.644 217.346 161.688 217.074 161.688ZM221.518 161.688C220.696 161.688 220.044 161.427 219.56 160.907C219.083 160.379 218.845 159.642 218.845 158.696C218.845 158.124 218.951 157.614 219.164 157.167C219.384 156.712 219.688 156.356 220.077 156.1C220.465 155.836 220.916 155.704 221.43 155.704C221.98 155.704 222.434 155.825 222.794 156.067C223.16 156.301 223.435 156.62 223.619 157.024C223.802 157.427 223.894 157.871 223.894 158.355C223.894 158.611 223.883 158.861 223.861 159.103H219.857C219.923 159.638 220.11 160.056 220.418 160.357C220.726 160.657 221.133 160.808 221.639 160.808C221.969 160.808 222.266 160.775 222.53 160.709C222.794 160.635 223.047 160.544 223.289 160.434L223.52 161.281C223.256 161.398 222.959 161.493 222.629 161.567C222.299 161.647 221.928 161.688 221.518 161.688ZM219.846 158.3H222.981C222.981 157.742 222.841 157.313 222.563 157.013C222.284 156.712 221.899 156.562 221.408 156.562C220.982 156.562 220.63 156.712 220.352 157.013C220.073 157.306 219.904 157.735 219.846 158.3Z" fill="#999999"/>
<path d="M46.8366 182.656C46.4032 182.656 46.0132 182.569 45.6666 182.396C45.3199 182.223 45.0209 182.002 44.7696 181.733L45.5236 180.823C45.6969 181.04 45.8919 181.222 46.1086 181.369C46.3339 181.516 46.5939 181.59 46.8886 181.59C47.2006 181.59 47.4822 181.473 47.7336 181.239C47.9936 180.996 48.1799 180.576 48.2926 179.978L49.4756 173.4H50.7106L49.5276 180.03C49.4236 180.602 49.2676 181.066 49.0596 181.421C48.8516 181.768 48.6176 182.032 48.3576 182.214C48.0976 182.387 47.8332 182.504 47.5646 182.565C47.3046 182.626 47.0619 182.656 46.8366 182.656ZM54.3523 182.656C53.7109 182.656 53.1563 182.526 52.6883 182.266C52.2203 182.006 51.8563 181.646 51.5963 181.187C51.3449 180.719 51.2193 180.19 51.2193 179.601C51.2193 178.847 51.3709 178.167 51.6743 177.56C51.9863 176.953 52.4196 176.472 52.9743 176.117C53.5289 175.762 54.1833 175.584 54.9373 175.584C55.5786 175.584 56.1333 175.714 56.6013 175.974C57.0693 176.234 57.4289 176.594 57.6803 177.053C57.9403 177.512 58.0703 178.041 58.0703 178.639C58.0703 179.384 57.9186 180.065 57.6153 180.68C57.3119 181.287 56.8786 181.768 56.3153 182.123C55.7606 182.478 55.1063 182.656 54.3523 182.656ZM54.3913 181.616C54.9113 181.616 55.3533 181.49 55.7173 181.239C56.0899 180.979 56.3759 180.632 56.5753 180.199C56.7746 179.766 56.8743 179.28 56.8743 178.743C56.8743 178.344 56.7963 177.989 56.6403 177.677C56.4843 177.356 56.2589 177.101 55.9643 176.91C55.6696 176.719 55.3143 176.624 54.8983 176.624C54.3869 176.624 53.9449 176.754 53.5723 177.014C53.1996 177.265 52.9136 177.608 52.7143 178.041C52.5149 178.474 52.4153 178.96 52.4153 179.497C52.4153 179.887 52.4933 180.242 52.6493 180.563C52.8053 180.884 53.0306 181.139 53.3253 181.33C53.6199 181.521 53.9753 181.616 54.3913 181.616ZM64.3439 177.716C64.3439 177.387 64.2442 177.122 64.0449 176.923C63.8542 176.715 63.6029 176.611 63.2909 176.611C62.9876 176.611 62.6539 176.719 62.2899 176.936C61.9346 177.153 61.6096 177.491 61.3149 177.95C61.0202 178.409 60.8079 179.003 60.6779 179.731L60.1969 182.5H59.0269L60.7169 172.88H61.8869L61.1329 177.157C61.4016 176.68 61.7526 176.299 62.1859 176.013C62.6279 175.727 63.0916 175.584 63.5769 175.584C64.1749 175.584 64.6472 175.766 64.9939 176.13C65.3492 176.485 65.5269 176.923 65.5269 177.443C65.5269 177.66 65.5009 177.933 65.4489 178.262L64.7079 182.5H63.5379L64.2529 178.457C64.2962 178.249 64.3222 178.097 64.3309 178.002C64.3396 177.898 64.3439 177.803 64.3439 177.716ZM70.9332 176.611C70.6298 176.611 70.3005 176.724 69.9452 176.949C69.5898 177.174 69.2605 177.525 68.9572 178.002C68.6625 178.47 68.4502 179.072 68.3202 179.809L67.8522 182.5H66.6822L67.8652 175.74H68.9962L68.7102 177.3C68.9788 176.78 69.3385 176.364 69.7892 176.052C70.2485 175.74 70.7295 175.584 71.2322 175.584C71.8215 175.584 72.2938 175.766 72.6492 176.13C73.0045 176.485 73.1822 176.923 73.1822 177.443C73.1822 177.66 73.1562 177.933 73.1042 178.262L72.3632 182.5H71.1932L71.9082 178.457C71.9515 178.249 71.9775 178.097 71.9862 178.002C71.9948 177.898 71.9992 177.803 71.9992 177.716C71.9992 177.378 71.8995 177.109 71.7002 176.91C71.5095 176.711 71.2538 176.611 70.9332 176.611ZM84.6049 178.353H80.2629L79.5349 182.5H78.2999L79.8989 173.4H81.1339L80.4449 177.287H84.7869L85.4759 173.4H86.7109L85.1119 182.5H83.8769L84.6049 178.353ZM90.2621 182.656C89.6901 182.656 89.1831 182.535 88.7411 182.292C88.3078 182.041 87.9655 181.685 87.7141 181.226C87.4715 180.758 87.3501 180.208 87.3501 179.575C87.3501 178.856 87.4975 178.193 87.7921 177.586C88.0955 176.979 88.5201 176.494 89.0661 176.13C89.6208 175.766 90.2665 175.584 91.0031 175.584C91.5058 175.584 91.9305 175.679 92.2771 175.87C92.6325 176.061 92.9055 176.308 93.0961 176.611C93.2868 176.914 93.3821 177.239 93.3821 177.586C93.3821 178.063 93.2695 178.457 93.0441 178.769C92.8188 179.081 92.5285 179.324 92.1731 179.497C91.8178 179.662 91.4321 179.779 91.0161 179.848C90.6088 179.917 90.2188 179.952 89.8461 179.952C89.6121 179.952 89.3781 179.943 89.1441 179.926C88.9188 179.9 88.7195 179.874 88.5461 179.848C88.6155 180.42 88.8191 180.858 89.1571 181.161C89.4951 181.464 89.9285 181.616 90.4571 181.616C90.8905 181.616 91.2761 181.56 91.6141 181.447C91.9521 181.334 92.2381 181.222 92.4721 181.109L92.5761 182.149C92.3161 182.27 91.9868 182.387 91.5881 182.5C91.1895 182.604 90.7475 182.656 90.2621 182.656ZM90.9121 176.572C90.5048 176.572 90.1365 176.676 89.8071 176.884C89.4778 177.083 89.2048 177.361 88.9881 177.716C88.7801 178.063 88.6415 178.461 88.5721 178.912C88.7715 178.947 88.9708 178.977 89.1701 179.003C89.3781 179.02 89.6035 179.029 89.8461 179.029C90.5741 179.029 91.1505 178.929 91.5751 178.73C91.9998 178.522 92.2121 178.171 92.2121 177.677C92.2121 177.374 92.0908 177.114 91.8481 176.897C91.6141 176.68 91.3021 176.572 90.9121 176.572ZM98.3297 176.611C98.0263 176.611 97.697 176.724 97.3417 176.949C96.9863 177.174 96.657 177.525 96.3537 178.002C96.059 178.47 95.8467 179.072 95.7167 179.809L95.2487 182.5H94.0787L95.2617 175.74H96.3927L96.1067 177.3C96.3753 176.78 96.735 176.364 97.1857 176.052C97.645 175.74 98.126 175.584 98.6287 175.584C99.218 175.584 99.6903 175.766 100.046 176.13C100.401 176.485 100.579 176.923 100.579 177.443C100.579 177.66 100.553 177.933 100.501 178.262L99.7597 182.5H98.5897L99.3047 178.457C99.348 178.249 99.374 178.097 99.3827 178.002C99.3913 177.898 99.3957 177.803 99.3957 177.716C99.3957 177.378 99.296 177.109 99.0967 176.91C98.906 176.711 98.6503 176.611 98.3297 176.611ZM102.787 177.638C102.796 177.595 102.8 177.547 102.8 177.495C102.809 177.434 102.813 177.374 102.813 177.313C102.813 177.07 102.744 176.901 102.605 176.806C102.466 176.702 102.284 176.65 102.059 176.65L102.462 175.74C102.921 175.74 103.272 175.853 103.515 176.078C103.766 176.295 103.892 176.62 103.892 177.053V177.313C104.143 176.698 104.464 176.256 104.854 175.987C105.253 175.718 105.703 175.584 106.206 175.584C106.405 175.584 106.574 175.601 106.713 175.636C106.86 175.662 106.982 175.697 107.077 175.74L106.557 176.884C106.453 176.841 106.345 176.81 106.232 176.793C106.119 176.776 105.989 176.767 105.842 176.767C105.53 176.767 105.218 176.88 104.906 177.105C104.603 177.322 104.325 177.686 104.074 178.197C103.831 178.708 103.632 179.41 103.476 180.303L103.099 182.5H101.929L102.787 177.638ZM109.7 181.46C110.03 181.46 110.35 181.356 110.662 181.148C110.983 180.94 111.265 180.641 111.507 180.251C111.75 179.852 111.919 179.371 112.014 178.808L112.547 175.74H113.717L112.534 182.578C112.43 183.176 112.27 183.666 112.053 184.047C111.845 184.428 111.598 184.723 111.312 184.931C111.035 185.148 110.74 185.299 110.428 185.386C110.116 185.473 109.809 185.516 109.505 185.516C108.916 185.516 108.413 185.395 107.997 185.152C107.59 184.909 107.256 184.628 106.996 184.307L107.906 183.631C108.331 184.212 108.89 184.502 109.583 184.502C110.017 184.502 110.398 184.342 110.727 184.021C111.057 183.7 111.291 183.154 111.429 182.383L111.676 181.005C111.416 181.421 111.087 181.776 110.688 182.071C110.29 182.357 109.83 182.5 109.31 182.5C108.972 182.5 108.66 182.426 108.374 182.279C108.088 182.123 107.859 181.902 107.685 181.616C107.512 181.33 107.425 180.992 107.425 180.602C107.425 180.507 107.425 180.398 107.425 180.277C107.434 180.156 107.451 180.026 107.477 179.887L108.179 175.74H109.349L108.634 179.861C108.608 180.017 108.595 180.164 108.595 180.303C108.595 180.693 108.704 180.983 108.92 181.174C109.146 181.365 109.406 181.46 109.7 181.46Z" fill="white"/>
<path d="M168.751 182.656C167.885 182.656 167.222 182.353 166.762 181.746C166.312 181.131 166.086 180.299 166.086 179.25C166.086 178.522 166.164 177.803 166.32 177.092C166.476 176.373 166.715 175.727 167.035 175.155C167.356 174.574 167.763 174.111 168.257 173.764C168.76 173.417 169.349 173.244 170.025 173.244C170.892 173.244 171.551 173.552 172.001 174.167C172.461 174.774 172.69 175.601 172.69 176.65C172.69 177.378 172.612 178.102 172.456 178.821C172.3 179.532 172.062 180.177 171.741 180.758C171.421 181.33 171.009 181.789 170.506 182.136C170.012 182.483 169.427 182.656 168.751 182.656ZM168.881 181.59C169.297 181.59 169.661 181.456 169.973 181.187C170.294 180.91 170.563 180.537 170.779 180.069C170.996 179.601 171.156 179.068 171.26 178.47C171.373 177.863 171.429 177.231 171.429 176.572C171.429 175.844 171.299 175.285 171.039 174.895C170.788 174.505 170.407 174.31 169.895 174.31C169.479 174.31 169.111 174.449 168.79 174.726C168.478 174.995 168.214 175.363 167.997 175.831C167.781 176.299 167.616 176.836 167.503 177.443C167.399 178.041 167.347 178.669 167.347 179.328C167.347 180.056 167.477 180.615 167.737 181.005C167.997 181.395 168.379 181.59 168.881 181.59ZM174.388 180.914C174.622 181.122 174.9 181.287 175.22 181.408C175.541 181.529 175.892 181.59 176.273 181.59C176.897 181.59 177.417 181.421 177.833 181.083C178.249 180.745 178.457 180.281 178.457 179.692C178.457 179.189 178.271 178.778 177.898 178.457C177.534 178.136 177.001 177.976 176.299 177.976H175.012L175.805 173.4H180.29L180.108 174.453H176.728L176.299 176.923H176.546C177.257 176.923 177.846 177.044 178.314 177.287C178.782 177.521 179.133 177.837 179.367 178.236C179.601 178.626 179.718 179.055 179.718 179.523C179.718 180.138 179.571 180.684 179.276 181.161C178.982 181.629 178.57 181.997 178.041 182.266C177.521 182.526 176.91 182.656 176.208 182.656C175.688 182.656 175.207 182.591 174.765 182.461C174.332 182.322 173.972 182.14 173.686 181.915L174.388 180.914ZM180.948 182.955L186.382 172.451L187.292 172.919L181.858 183.423L180.948 182.955ZM193.808 175.441C193.808 175.892 193.699 176.299 193.483 176.663C193.275 177.018 192.997 177.343 192.651 177.638C192.304 177.933 191.931 178.219 191.533 178.496C191.143 178.765 190.761 179.046 190.389 179.341C190.025 179.627 189.708 179.939 189.44 180.277C189.171 180.615 188.993 181.001 188.907 181.434H193.041L192.859 182.5H187.633C187.624 182.431 187.615 182.353 187.607 182.266C187.598 182.179 187.594 182.097 187.594 182.019C187.594 181.412 187.711 180.879 187.945 180.42C188.187 179.952 188.495 179.536 188.868 179.172C189.249 178.808 189.648 178.474 190.064 178.171C190.488 177.868 190.887 177.582 191.26 177.313C191.641 177.036 191.949 176.754 192.183 176.468C192.425 176.182 192.547 175.87 192.547 175.532C192.547 175.151 192.417 174.847 192.157 174.622C191.897 174.397 191.576 174.284 191.195 174.284C190.822 174.284 190.484 174.353 190.181 174.492C189.886 174.631 189.591 174.826 189.297 175.077L188.751 174.193C189.106 173.907 189.492 173.677 189.908 173.504C190.324 173.331 190.8 173.244 191.338 173.244C191.832 173.244 192.261 173.339 192.625 173.53C192.997 173.721 193.288 173.981 193.496 174.31C193.704 174.639 193.808 175.016 193.808 175.441ZM196.689 178.236L196.845 177.287H197.261C198.11 177.287 198.79 177.135 199.302 176.832C199.813 176.52 200.069 176.1 200.069 175.571C200.069 175.172 199.93 174.856 199.653 174.622C199.384 174.379 199.037 174.258 198.613 174.258C198.214 174.258 197.872 174.323 197.586 174.453C197.3 174.574 197.044 174.717 196.819 174.882L196.364 173.998C196.667 173.781 197.014 173.604 197.404 173.465C197.802 173.318 198.253 173.244 198.756 173.244C199.284 173.244 199.735 173.344 200.108 173.543C200.489 173.742 200.779 174.007 200.979 174.336C201.178 174.657 201.278 175.003 201.278 175.376C201.278 175.983 201.1 176.477 200.745 176.858C200.389 177.231 199.869 177.521 199.185 177.729C199.731 177.92 200.151 178.201 200.446 178.574C200.74 178.947 200.888 179.389 200.888 179.9C200.888 180.455 200.745 180.94 200.459 181.356C200.173 181.772 199.778 182.093 199.276 182.318C198.782 182.543 198.214 182.656 197.573 182.656C197.079 182.656 196.611 182.591 196.169 182.461C195.735 182.322 195.367 182.136 195.064 181.902L195.753 180.979C195.969 181.161 196.229 181.313 196.533 181.434C196.836 181.555 197.183 181.616 197.573 181.616C198.162 181.616 198.652 181.473 199.042 181.187C199.432 180.901 199.627 180.489 199.627 179.952C199.627 179.475 199.44 179.072 199.068 178.743C198.695 178.405 198.123 178.236 197.352 178.236H196.689Z" fill="white"/>
</g>
<defs>
<filter id="filter0_dd_53_919" x="-14" y="0" width="388.945" height="268" filterUnits="userSpaceOnUse" color-interpolation-filters="sRGB">
<feFlood flood-opacity="0" result="BackgroundImageFix"/>
<feColorMatrix in="SourceAlpha" type="matrix" values="0 0 0 0 0 0 0 0 0 0 0 0 0 0 0 0 0 0 127 0" result="hardAlpha"/>
<feOffset dy="24"/>
<feGaussianBlur stdDeviation="16"/>
<feColorMatrix type="matrix" values="0 0 0 0 0.196487 0 0 0 0 0.196487 0 0 0 0 0.279476 0 0 0 0.08 0"/>
<feBlend mode="multiply" in2="BackgroundImageFix" result="effect1_dropShadow_53_919"/>
<feColorMatrix in="SourceAlpha" type="matrix" values="0 0 0 0 0 0 0 0 0 0 0 0 0 0 0 0 0 0 127 0" result="hardAlpha"/>
<feOffset dy="16"/>
<feGaussianBlur stdDeviation="8"/>
<feColorMatrix type="matrix" values="0 0 0 0 0.196487 0 0 0 0 0.196487 0 0 0 0 0.279476 0 0 0 0.08 0"/>
<feBlend mode="multiply" in2="effect1_dropShadow_53_919" result="effect2_dropShadow_53_919"/>
<feBlend mode="normal" in="SourceGraphic" in2="effect2_dropShadow_53_919" result="shape"/>
</filter>
</defs>
</svg>
