<svg width="45" height="45" viewBox="0 0 45 45" fill="none" xmlns="http://www.w3.org/2000/svg">
<g id="Icon">
<g id="&#240;&#159;&#166;&#134; icon &#34;building line&#34;">
<path id="Vector" d="M30.1215 16.8002H25.3213V18.0002H30.1215V30.6007H25.3213V31.8008H31.3215V18.0002C31.3215 17.6819 31.1951 17.3767 30.97 17.1517C30.745 16.9266 30.4397 16.8002 30.1215 16.8002Z" fill="#71839B"/>
<path id="Vector_2" d="M23.4493 13.8001H15.1929C14.8556 13.8001 14.532 13.9341 14.2935 14.1727C14.0549 14.4112 13.9209 14.7348 13.9209 15.0721V31.8008H24.7213V15.0721C24.7213 14.7348 24.5873 14.4112 24.3487 14.1727C24.1102 13.9341 23.7866 13.8001 23.4493 13.8001ZM23.5213 30.6007H21.7212V28.8007H16.921V30.6007H15.1209V15.0721C15.1209 15.0627 15.1228 15.0533 15.1264 15.0446C15.13 15.0358 15.1353 15.0279 15.142 15.0212C15.1487 15.0145 15.1567 15.0092 15.1654 15.0056C15.1741 15.002 15.1835 15.0001 15.1929 15.0001H23.4493C23.4587 15.0001 23.4681 15.002 23.4768 15.0056C23.4856 15.0092 23.4935 15.0145 23.5002 15.0212C23.5069 15.0279 23.5122 15.0358 23.5158 15.0446C23.5194 15.0533 23.5213 15.0627 23.5213 15.0721V30.6007Z" fill="#71839B"/>
<path id="Vector_3" d="M16.3213 16.8002H17.5213V18.0002H16.3213V16.8002Z" fill="#71839B"/>
<path id="Vector_4" d="M18.7212 16.8002H19.9212V18.0002H18.7212V16.8002Z" fill="#71839B"/>
<path id="Vector_5" d="M21.1216 16.8002H22.3216V18.0002H21.1216V16.8002Z" fill="#71839B"/>
<path id="Vector_6" d="M16.3213 19.8003H17.5213V21.0003H16.3213V19.8003Z" fill="#71839B"/>
<path id="Vector_7" d="M18.7212 19.8003H19.9212V21.0003H18.7212V19.8003Z" fill="#71839B"/>
<path id="Vector_8" d="M21.1216 19.8003H22.3216V21.0003H21.1216V19.8003Z" fill="#71839B"/>
<path id="Vector_9" d="M16.3213 22.8004H17.5213V24.0005H16.3213V22.8004Z" fill="#71839B"/>
<path id="Vector_10" d="M18.7212 22.8004H19.9212V24.0005H18.7212V22.8004Z" fill="#71839B"/>
<path id="Vector_11" d="M21.1216 22.8004H22.3216V24.0005H21.1216V22.8004Z" fill="#71839B"/>
<path id="Vector_12" d="M16.3213 25.8005H17.5213V27.0006H16.3213V25.8005Z" fill="#71839B"/>
<path id="Vector_13" d="M18.7212 25.8005H19.9212V27.0006H18.7212V25.8005Z" fill="#71839B"/>
<path id="Vector_14" d="M21.1216 25.8005H22.3216V27.0006H21.1216V25.8005Z" fill="#71839B"/>
<path id="Vector_15" d="M25.3213 19.8003H26.5213V21.0003H25.3213V19.8003Z" fill="#71839B"/>
<path id="Vector_16" d="M27.7217 19.8003H28.9217V21.0003H27.7217V19.8003Z" fill="#71839B"/>
<path id="Vector_17" d="M25.3213 22.8004H26.5213V24.0005H25.3213V22.8004Z" fill="#71839B"/>
<path id="Vector_18" d="M27.7217 22.8004H28.9217V24.0005H27.7217V22.8004Z" fill="#71839B"/>
<path id="Vector_19" d="M25.3213 25.8005H26.5213V27.0006H25.3213V25.8005Z" fill="#71839B"/>
<path id="Vector_20" d="M27.7217 25.8005H28.9217V27.0006H27.7217V25.8005Z" fill="#71839B"/>
</g>
</g>
</svg>
